<svg xmlns="http://www.w3.org/2000/svg" viewBox="0 0 128 128" role="img" aria-label="Paperclip logo">
  <rect width="128" height="128" rx="28" fill="#111827"/>
  <path d="M43 70.5 76.5 37c10.4-10.4 27.3-3 27.3 11.8 0 4.4-1.8 8.7-4.9 11.8L58.4 101.1c-13 13-34.2 3.8-34.2-14.6 0-5.5 2.2-10.7 6.1-14.6l43.9-43.9" fill="none" stroke="#f8fafc" stroke-width="10" stroke-linecap="round" stroke-linejoin="round"/>
  <path d="M46.6 78.8 83.3 42.1c4.8-4.8 12.9-1.4 12.9 5.4 0 2-.8 4-2.2 5.4L55.2 91.7c-6.3 6.3-17.2 1.9-17.2-7 0-2.6 1-5.1 2.9-7l36.4-36.4" fill="none" stroke="#38bdf8" stroke-width="8" stroke-linecap="round" stroke-linejoin="round"/>
</svg>