<svg xmlns="http://www.w3.org/2000/svg" viewBox="0 0 512 512" fill="none">
  <rect width="512" height="512" rx="80" fill="#1a73e8"/>
  <path d="M160 160c0-17.7 14.3-32 32-32h128l64 64v160c0 17.7-14.3 32-32 32H192c-17.7 0-32-14.3-32-32V160z" fill="white"/>
  <path d="M320 128v48c0 8.8 7.2 16 16 16h48" fill="none" stroke="white" stroke-width="4"/>
  <rect x="184" y="240" width="144" height="4" rx="2" fill="#1a73e8"/>
  <rect x="184" y="260" width="120" height="4" rx="2" fill="#1a73e8"/>
  <rect x="184" y="280" width="100" height="4" rx="2" fill="#1a73e8"/>
  <rect x="184" y="300" width="130" height="4" rx="2" fill="#1a73e8"/>
  <circle cx="156" cy="156" r="8" fill="white"/>
</svg>
