<svg xmlns="http://www.w3.org/2000/svg" viewBox="0 0 512 512" width="512" height="512">
  <defs>
    <linearGradient id="gradient" x1="0%" y1="0%" x2="100%" y2="100%">
      <stop offset="0%" style="stop-color:#4F46E5;stop-opacity:1" />
      <stop offset="100%" style="stop-color:#7C3AED;stop-opacity:1" />
    </linearGradient>
  </defs>
  <!-- Background circle -->
  <circle cx="256" cy="256" r="240" fill="url(#gradient)"/>
  <!-- Uptime arrow/chart icon -->
  <g fill="white">
    <!-- Base line -->
    <rect x="120" y="340" width="272" height="12" rx="6"/>
    <!-- Vertical bars representing uptime -->
    <rect x="140" y="260" width="40" height="80" rx="8"/>
    <rect x="200" y="200" width="40" height="140" rx="8"/>
    <rect x="260" y="160" width="40" height="180" rx="8"/>
    <rect x="320" y="140" width="40" height="200" rx="8"/>
    <!-- Up arrow -->
    <path d="M 380 180 L 420 200 L 420 240 L 400 240 L 400 280 L 360 280 L 360 240 L 340 240 L 340 200 Z" opacity="0.9"/>
  </g>
  <!-- Check/tick mark overlay -->
  <circle cx="380" cy="150" r="45" fill="#10B981"/>
  <path d="M 360 150 L 375 165 L 400 140" stroke="white" stroke-width="8" stroke-linecap="round" stroke-linejoin="round" fill="none"/>
</svg>
