<svg xmlns="http://www.w3.org/2000/svg" xml:space="preserve" style="enable-background:new 0 0 45 45" viewBox="0 0 45 45"><defs><clipPath id="a" clipPathUnits="userSpaceOnUse"><path d="M0 36h36V0H0v36Z"/></clipPath></defs><g clip-path="url(#a)" transform="matrix(1.25 0 0 -1.25 0 45)"><path d="M0 0h-29c4 0 3 9 3 9 0 2.209 1.791 15 4 15h21s4 0 4-4V3s0-3-3-3" style="fill:#99aab5;fill-opacity:1;fill-rule:nonzero;stroke:none" transform="translate(33)"/><path d="M0 0c0-3 3-3 3-3h-30s-3 0-3 4v28a4 4 0 0 0 4 4h22a4 4 0 0 0 4-4V0Z" style="fill:#ccd6dd;fill-opacity:1;fill-rule:nonzero;stroke:none" transform="translate(30 3)"/><path d="M0 0a1 1 0 0 0-1-1h-8a1 1 0 1 0 0 2h8a1 1 0 0 0 1-1" style="fill:#99aab5;fill-opacity:1;fill-rule:nonzero;stroke:none" transform="translate(27 16)"/><path d="M0 0a1 1 0 0 0-1-1h-8a1 1 0 1 0 0 2h8a1 1 0 0 0 1-1" style="fill:#99aab5;fill-opacity:1;fill-rule:nonzero;stroke:none" transform="translate(27 20)"/><path d="M0 0a1 1 0 0 0-1-1h-8a1 1 0 1 0 0 2h8a1 1 0 0 0 1-1" style="fill:#99aab5;fill-opacity:1;fill-rule:nonzero;stroke:none" transform="translate(27 24)"/><path d="M0 0a1 1 0 0 0-1-1h-22a1 1 0 1 0 0 2h22a1 1 0 0 0 1-1" style="fill:#99aab5;fill-opacity:1;fill-rule:nonzero;stroke:none" transform="translate(27 12)"/><path d="M0 0a1 1 0 0 0-1-1h-22a1 1 0 1 0 0 2h22a1 1 0 0 0 1-1" style="fill:#99aab5;fill-opacity:1;fill-rule:nonzero;stroke:none" transform="translate(27 8)"/><path d="M0 0a1 1 0 0 0-1-1h-22a1 1 0 1 0 0 2h22a1 1 0 0 0 1-1" style="fill:#99aab5;fill-opacity:1;fill-rule:nonzero;stroke:none" transform="translate(27 4)"/><path d="M0 0s2 0 2 2v2s0 2-2 2h-20s-2 0-2-2V2s0-2 2-2H0Z" style="fill:#99aab5;fill-opacity:1;fill-rule:nonzero;stroke:none" transform="translate(25 27)"/><path d="M0 0s2 0 2 2v6s0 2-2 2h-8s-2 0-2-2V2s0-2 2-2h8z" style="fill:#55acee;fill-opacity:1;fill-rule:nonzero;stroke:none" transform="translate(13 15)"/></g></svg>