<?xml version="1.0" standalone="no"?>
<!DOCTYPE svg PUBLIC "-//W3C//DTD SVG 20010904//EN"
 "http://www.w3.org/TR/2001/REC-SVG-20010904/DTD/svg10.dtd">
<svg version="1.0" xmlns="http://www.w3.org/2000/svg"
 width="200.000000pt" height="200.000000pt" viewBox="0 0 200.000000 200.000000"
 preserveAspectRatio="xMidYMid meet">

<g transform="translate(0.000000,200.000000) scale(0.100000,-0.100000)"
fill="#7c221f" stroke="none">
<path d="M795 1986 c-359 -59 -598 -258 -720 -600 -54 -149 -69 -248 -69 -431
1 -126 5 -180 22 -252 52 -229 162 -408 318 -519 244 -174 636 -231 989 -144
102 26 263 105 340 167 194 157 305 408 321 724 12 219 -25 410 -112 584 -123
247 -333 399 -634 460 -106 22 -356 28 -455 11z m379 -52 c38 -16 83 -43 100
-62 35 -36 93 -56 137 -47 24 5 34 1 59 -23 54 -54 44 -62 -77 -63 -113 -1
-111 -16 2 -18 l59 -1 -21 -22 c-21 -20 -32 -22 -152 -22 -195 -1 -198 -22
-26 -151 128 -96 158 -127 193 -204 73 -158 -10 -416 -173 -540 -27 -21 -114
-67 -192 -101 -162 -70 -201 -104 -222 -185 -43 -171 147 -312 301 -222 147
86 130 299 -28 364 l-42 18 66 35 c37 20 88 48 113 63 l46 27 47 -50 c87 -93
126 -220 106 -345 -6 -36 -16 -77 -22 -92 -28 -66 -86 -139 -141 -179 -252
-186 -601 -44 -658 269 -23 122 19 253 110 350 60 63 122 99 211 122 95 25
165 62 216 117 56 60 83 119 84 181 0 98 -46 162 -213 292 l-118 92 -50 -5
c-59 -5 -63 7 -11 33 l37 18 -30 12 c-16 7 -60 16 -98 20 -66 6 -68 7 -52 25
9 10 38 27 64 39 47 20 48 21 42 58 -5 32 -13 42 -49 62 -64 35 -43 47 76 43
61 -1 105 2 120 10 21 11 18 14 -55 50 -43 21 -67 36 -53 34 137 -25 163 -27
171 -19 7 7 -12 15 -53 23 -105 21 -102 31 7 27 81 -4 113 -10 169 -33z m-196
-514 c136 -32 254 -138 268 -244 5 -34 1 -56 -21 -105 -41 -91 -117 -154 -225
-186 -24 -8 -24 -7 7 28 76 87 64 202 -29 270 -41 31 -124 34 -175 8 -60 -30
-87 -73 -91 -147 -6 -98 24 -139 130 -175 l49 -16 -53 -30 c-29 -17 -72 -51
-96 -77 -23 -25 -49 -46 -56 -46 -26 0 -122 98 -150 153 -75 150 -53 320 59
445 93 103 248 153 383 122z m-298 -745 c0 -3 -9 -24 -21 -46 -11 -23 -24 -60
-27 -82 -7 -42 -8 -42 -67 -55 -33 -8 -86 -22 -117 -32 -32 -10 -58 -14 -58
-9 0 44 74 141 138 181 46 29 152 58 152 43z"/>
<path d="M1226 1823 c-11 -11 -6 -23 8 -23 8 0 17 4 20 9 7 10 -19 23 -28 14z"/>
</g>
</svg>
